<svg xmlns="http://www.w3.org/2000/svg" version="1.1" xmlns:xlink="http://www.w3.org/1999/xlink" width="500" height="500"><svg width="500" height="500" viewBox="0 0 500 500" fill="none" xmlns="http://www.w3.org/2000/svg">
<path d="M408.343 387.689C413.031 387.689 416.641 388.83 419.075 391.2C421.512 393.573 422.688 397.093 422.688 401.666V437.603C422.687 442.175 421.512 445.695 419.075 448.067C416.641 450.437 413.031 451.578 408.343 451.578H135.839C128.838 451.578 122.447 449.987 116.677 446.799H116.676L85.5254 429.504L85.5225 429.503C79.6048 426.168 76.5 422.14 76.5 417.388V401.666C76.5 397.093 77.6752 393.573 80.1123 391.2C82.547 388.83 86.1563 387.689 90.8447 387.689H408.343ZM264.693 47.5C269.653 47.5 273.998 49.0553 277.705 52.165C281.172 55.0734 284.061 59.3235 286.39 64.8809L286.849 66.0098V66.0107L399.911 355.072L399.912 355.073C401.851 360.057 401.987 363.981 400.022 366.667C398.066 369.341 394.174 370.578 388.601 370.578H351.913C346.748 370.578 342.334 369.262 338.697 366.607C335.064 363.955 332.244 359.993 330.219 354.762L306.808 294.663H190.275L166.864 354.762C164.839 359.993 162.019 363.955 158.386 366.607C154.749 369.262 150.335 370.578 145.17 370.578H108.482C102.909 370.578 99.0169 369.341 97.0605 366.667C95.096 363.981 95.2326 360.057 97.1719 355.073V355.072L210.234 66.0107V66.0098C212.638 59.896 215.679 55.2673 219.378 52.165C223.085 49.0553 227.43 47.5 232.39 47.5H264.693ZM248.529 132.276C247.775 139.546 247.022 145.105 246.264 148.942L246.263 148.941C245.635 152.746 243.617 158.849 240.237 167.223L212.13 237.962H284.954L256.845 167.224V167.223C253.461 158.839 251.369 152.738 250.59 148.946L250.588 148.936L250.586 148.924C249.981 145.096 249.304 139.545 248.553 132.276H248.529Z" fill="#2A8E9E" stroke="#28A745"></path>
</svg><style>@media (prefers-color-scheme: light) { :root { filter: none; } }
@media (prefers-color-scheme: dark) { :root { filter: none; } }
</style></svg>